<?xml version="1.0" standalone="no"?>
<!DOCTYPE svg PUBLIC "-//W3C//DTD SVG 20010904//EN"
 "http://www.w3.org/TR/2001/REC-SVG-20010904/DTD/svg10.dtd">
<svg version="1.0" xmlns="http://www.w3.org/2000/svg"
 width="1024.000000pt" height="1024.000000pt" viewBox="0 0 1024.000000 1024.000000"
 preserveAspectRatio="xMidYMid meet">
<metadata>
Created by potrace 1.11, written by Peter Selinger 2001-2013
</metadata>
<g transform="translate(0.000000,1024.000000) scale(0.100000,-0.100000)"
fill="#000000" stroke="none">
<path d="M4760 10234 c-19 -2 -87 -9 -150 -15 -283 -26 -620 -90 -914 -175
-1038 -299 -1954 -922 -2633 -1791 -101 -130 -307 -437 -391 -583 -357 -625
-572 -1300 -654 -2045 -8 -78 -13 -255 -13 -505 0 -394 6 -487 46 -760 139
-931 531 -1802 1140 -2530 210 -252 524 -554 796 -767 130 -101 437 -307 583
-391 625 -357 1300 -572 2045 -654 163 -18 847 -18 1010 0 745 82 1420 297
2045 654 146 84 453 290 583 391 272 213 586 515 796 767 609 728 1001 1599
1140 2530 40 273 46 366 46 760 0 250 -5 427 -13 505 -82 745 -297 1420 -654
2045 -84 146 -290 453 -391 583 -213 272 -515 586 -767 796 -712 596 -1558
983 -2470 1131 -279 45 -384 52 -770 55 -206 2 -391 1 -410 -1z m871 -2614
c583 -119 871 -557 929 -1415 6 -92 10 -880 10 -2052 l0 -1903 -230 0 -230 0
0 1943 c0 1297 -4 1980 -11 2053 -38 391 -160 691 -341 835 -69 55 -177 106
-263 124 -149 31 -376 13 -542 -44 -227 -78 -425 -269 -542 -522 -117 -254
-193 -630 -221 -1086 -6 -105 -10 -783 -10 -1738 l0 -1565 -230 0 -230 0 0
2650 0 2650 195 0 195 0 1 -62 c0 -35 8 -200 17 -368 l17 -305 25 -2 c22 -3
29 6 65 84 184 400 554 685 967 743 95 13 315 3 429 -20z"/>
</g>
</svg>
