<?xml version="1.0" standalone="no"?>
<!DOCTYPE svg PUBLIC "-//W3C//DTD SVG 20010904//EN"
 "http://www.w3.org/TR/2001/REC-SVG-20010904/DTD/svg10.dtd">
<svg version="1.0" xmlns="http://www.w3.org/2000/svg"
 width="300.000000pt" height="300.000000pt" viewBox="0 0 300.000000 300.000000"
 preserveAspectRatio="xMidYMid meet">
<metadata>
Created by potrace 1.11, written by Peter Selinger 2001-2013
</metadata>
<g transform="translate(0.000000,300.000000) scale(0.100000,-0.100000)"
fill="#000000" stroke="none">
<path d="M1302 2989 c-171 -23 -375 -91 -527 -176 -384 -214 -653 -579 -747
-1016 -32 -148 -32 -446 0 -594 129 -597 578 -1046 1175 -1175 148 -32 446
-32 594 0 597 129 1046 578 1175 1175 32 148 32 446 0 594 -129 594 -581 1049
-1170 1173 -114 24 -385 35 -500 19z m420 -778 c93 -45 150 -123 183 -256 16
-62 18 -140 22 -683 l5 -612 -71 0 -70 0 -3 613 c-3 558 -5 617 -22 666 -40
122 -100 171 -208 171 -85 0 -148 -23 -197 -70 -49 -48 -76 -99 -104 -198 -20
-74 -21 -100 -25 -629 l-3 -553 -70 0 -69 0 0 775 0 776 58 -3 57 -3 3 -95 c2
-52 7 -99 12 -104 5 -5 17 9 30 33 43 84 128 159 215 188 60 20 199 11 257
-16z"/>
</g>
</svg>
